<?xml version="1.0" standalone="no"?><svg xmlns="http://www.w3.org/2000/svg" viewBox="0 0 1440 320"><path fill="#111111" fill-opacity="1" d="M0,64L34.3,85.3C68.6,107,137,149,206,165.3C274.3,181,343,171,411,149.3C480,128,549,96,617,74.7C685.7,53,754,43,823,42.7C891.4,43,960,53,1029,80C1097.1,107,1166,149,1234,160C1302.9,171,1371,149,1406,138.7L1440,128L1440,0L1405.7,0C1371.4,0,1303,0,1234,0C1165.7,0,1097,0,1029,0C960,0,891,0,823,0C754.3,0,686,0,617,0C548.6,0,480,0,411,0C342.9,0,274,0,206,0C137.1,0,69,0,34,0L0,0Z"></path></svg>